<svg xmlns="http://www.w3.org/2000/svg" viewBox="0 0 48 48"><title>15-app development</title><g id="_15-app_development" data-name="15-app development"><path d="M25,48H3a3,3,0,0,1-3-3V3A3,3,0,0,1,3,0H25a3,3,0,0,1,3,3V5H26V3a1,1,0,0,0-1-1H3A1,1,0,0,0,2,3V45a1,1,0,0,0,1,1H25a1,1,0,0,0,1-1V40h2v5A3,3,0,0,1,25,48Z"/><rect x="1" y="8" width="20" height="2"/><rect x="1" y="38" width="20" height="2"/><rect x="11" y="4" width="6" height="2"/><rect x="11" y="42" width="6" height="2"/><path d="M45,15H23a3,3,0,0,1-3-3V8a3,3,0,0,1,3-3H45a3,3,0,0,1,3,3v4A3,3,0,0,1,45,15ZM23,7a1,1,0,0,0-1,1v4a1,1,0,0,0,1,1H45a1,1,0,0,0,1-1V8a1,1,0,0,0-1-1Z"/><path d="M45,28H35a3,3,0,0,1-3-3V21a3,3,0,0,1,3-3H45a3,3,0,0,1,3,3v4A3,3,0,0,1,45,28ZM35,20a1,1,0,0,0-1,1v4a1,1,0,0,0,1,1H45a1,1,0,0,0,1-1V21a1,1,0,0,0-1-1Z"/><path d="M45,41H23a3,3,0,0,1-3-3V34a3,3,0,0,1,3-3H45a3,3,0,0,1,3,3v4A3,3,0,0,1,45,41ZM23,33a1,1,0,0,0-1,1v4a1,1,0,0,0,1,1H45a1,1,0,0,0,1-1V34a1,1,0,0,0-1-1Z"/><path d="M4.63,39.631,3.216,38.217l6.443-6.443a1,1,0,0,1,1.138-.2,5.029,5.029,0,0,0,7.15-5.265L15.1,29.166a1.029,1.029,0,0,1-1.414,0l-2.848-2.848a1,1,0,0,1,0-1.414l2.852-2.851A5.029,5.029,0,0,0,8.421,29.2a1,1,0,0,1-.195,1.138L1.784,36.783.37,35.369,6.34,29.4A7.03,7.03,0,0,1,16,20.687a1,1,0,0,1,.276,1.609l-3.315,3.315,1.433,1.434L17.7,23.729a1,1,0,0,1,1.609.276A7.03,7.03,0,0,1,10.6,33.66Z"/><rect x="40" y="22" width="4" height="2"/><rect x="36" y="22" width="2" height="2"/><path d="M6,17H4V13a1,1,0,0,1,1-1H9v2H6Z"/><rect x="11" y="12" width="2" height="2"/><rect x="24" y="9" width="2" height="2"/><rect x="28" y="9" width="16" height="2"/><rect x="24" y="35" width="2" height="2"/><rect x="28" y="35" width="16" height="2"/><rect x="26" y="14" width="2" height="18"/></g></svg>