<svg xmlns="http://www.w3.org/2000/svg" viewBox="0 0 48 48"><defs><style>.cls-1{fill:#fff;}.cls-2{fill:#65b1fc;}.cls-3{fill:#256494;}</style></defs><title>9-Computer Game</title><g id="_9-Computer_Game" data-name="9-Computer Game"><g id="_Group_" data-name="&lt;Group&gt;"><path class="cls-1" d="M34,43v3a1,1,0,0,1-1,1H15a1,1,0,0,1-1-1V43H34Z"/><rect class="cls-2" x="17" y="35" width="14" height="8"/><path class="cls-1" d="M47,3V33a2.006,2.006,0,0,1-2,2H3a2.006,2.006,0,0,1-2-2V3A2.006,2.006,0,0,1,3,1H45A2.006,2.006,0,0,1,47,3ZM42,30V6H6V30Z"/><path class="cls-1" d="M26.66,12.34,21,18l5.66,5.66a8,8,0,1,1,0-11.32Z"/><path class="cls-2" d="M42,6V30H6V6ZM21,18l5.66-5.66a8,8,0,1,0,0,11.32Z"/><path class="cls-3" d="M45,0H3A3,3,0,0,0,0,3V33a3,3,0,0,0,3,3H16v6H14a1,1,0,0,0-1,1v3H11v2H37V46H35V43a1,1,0,0,0-1-1H32V36H45a3,3,0,0,0,3-3V3A3,3,0,0,0,45,0ZM33,46H15V44H33Zm-3-4H18V36H30Zm16-9a1,1,0,0,1-1,1H3a1,1,0,0,1-1-1V3A1,1,0,0,1,3,2H45a1,1,0,0,1,1,1Z"/><path class="cls-3" d="M42,5H6A1,1,0,0,0,5,6V30a1,1,0,0,0,1,1H42a1,1,0,0,0,1-1V6A1,1,0,0,0,42,5ZM41,29H7V7H41Z"/><path class="cls-3" d="M21,27a8.983,8.983,0,0,0,6.365-2.63,1,1,0,0,0,0-1.417L22.414,18l4.953-4.953a1,1,0,0,0,0-1.417A9,9,0,1,0,21,27Zm0-16a6.98,6.98,0,0,1,4.194,1.392l-4.9,4.9a1,1,0,0,0,0,1.414l4.9,4.9A7,7,0,1,1,21,11Z"/><rect class="cls-3" x="30" y="17" width="2" height="2"/><rect class="cls-3" x="26" y="17" width="2" height="2"/><rect class="cls-3" x="34" y="17" width="2" height="2"/><path class="cls-3" d="M37,14h2V10a1,1,0,0,0-1-1H34v2h3Z"/></g></g></svg>