<svg xmlns="http://www.w3.org/2000/svg" viewBox="0 0 48 48"><title>02-HTML</title><g id="_02-HTML" data-name="02-HTML"><path d="M45,40H3a3,3,0,0,1-3-3V11A3,3,0,0,1,3,8H6v2H3a1,1,0,0,0-1,1V37a1,1,0,0,0,1,1H45a1,1,0,0,0,1-1V11a1,1,0,0,0-1-1H42V8h3a3,3,0,0,1,3,3V37A3,3,0,0,1,45,40Z"/><rect x="15" y="39" width="2" height="4"/><path d="M13,47H11V45a3,3,0,0,1,3-3H24v2H14a1,1,0,0,0-1,1Z"/><rect x="31" y="39" width="2" height="4"/><path d="M37,47H35V45a1,1,0,0,0-1-1H29V42h5a3,3,0,0,1,3,3Z"/><rect x="9" y="46" width="30" height="2"/><path d="M40,36H8a3,3,0,0,1-3-3V3A3,3,0,0,1,8,0H40a3,3,0,0,1,3,3V33A3,3,0,0,1,40,36ZM8,2A1,1,0,0,0,7,3V33a1,1,0,0,0,1,1H40a1,1,0,0,0,1-1V3a1,1,0,0,0-1-1Z"/><rect x="6" y="6" width="36" height="2"/><rect x="9" y="3" width="2" height="2"/><rect x="13" y="3" width="2" height="2"/><rect x="17" y="3" width="2" height="2"/><rect x="1" y="30" width="5" height="2"/><rect x="42" y="30" width="5" height="2"/><rect x="10" y="17" width="2" height="8"/><rect x="14" y="17" width="2" height="8"/><rect x="11" y="20" width="4" height="2"/><rect x="17" y="17" width="6" height="2"/><rect x="19" y="18" width="2" height="7"/><path d="M32,25H30V22.236L28.9,24.447a1.042,1.042,0,0,1-1.79,0L26,22.236V25H24V18a1,1,0,0,1,1.895-.447L28,21.764l2.105-4.211A1,1,0,0,1,32,18Z"/><path d="M39,25H34a1,1,0,0,1-1-1V17h2v6h4Z"/><rect x="9" y="10" width="2" height="2"/><rect x="37" y="10" width="2" height="2"/><rect x="37" y="30" width="2" height="2"/><rect x="9" y="30" width="2" height="2"/></g></svg>